<svg xmlns="http://www.w3.org/2000/svg" version="1.1" xmlns:xlink="http://www.w3.org/1999/xlink" xmlns:svgjs="http://svgjs.dev/svgjs" width="2000" height="2000" viewBox="0 0 2000 2000"><g transform="matrix(1,0,0,1,0,0)"><svg viewBox="0 0 280 280" data-background-color="#ffffff" preserveAspectRatio="xMidYMid meet" height="2000" width="2000" xmlns="http://www.w3.org/2000/svg" xmlns:xlink="http://www.w3.org/1999/xlink"><g id="tight-bounds" transform="matrix(1,0,0,1,0,0)"><svg viewBox="0 0 280 280" height="280" width="280"><g><svg viewBox="0 0 280 280" height="280" width="280"><g><svg viewBox="0 0 280 280" height="280" width="280"><g id="textblocktransform"><svg viewBox="0 0 280 280" height="280" width="280" id="textblock"><g><svg viewBox="0 0 280 280" height="280" width="280"><g transform="matrix(1,0,0,1,89.695621536157,74.00336708925556)"><svg viewBox="0 0 100.60875692768597 131.99326582148888" height="131.99326582148888" width="100.60875692768597"><g id="icon-0"><svg xmlns="http://www.w3.org/2000/svg" xmlns:xlink="http://www.w3.org/1999/xlink" version="1.1" x="0" y="0" viewBox="11.763437805506854 1.1607935442098085 67.86803723350435 89.03920645579021" style="enable-background:new 0 0 91 91;" xml:space="preserve" height="131.99326582148888" width="100.60875692768597" class="icon-xg-0" data-fill-palette-color="accent" id="xg-0"><g fill="#6569f1" data-fill-palette-color="accent"><path d="M21.5 65.1c-3.1 1.4-4.8 5.6-5.7 8.7-1.4 4.4-2.2 10.7 0.1 14.9 1.1 2 4.1 1 4.1-1.1 0-3.8-1-7.2-0.1-11.1 0.5-2.4 1.4-4.5 2.7-6.5 1.1 1.7 2.8 2.9 4.9 3.3 3.6 0.7 7.5-1 10.6-2.7 3.3-1.9 6.3-4.5 8.8-7.4 2.7-3.1 4.7-6.8 7.4-9.8 1-1.1 3.1-3 4.7-1.8 1.6 1.2 0 5.1-0.5 6.5-1.5 4.1-3.9 7.7-6.9 10.9-6.5 6.9-15 10.3-23.2 14.5-1.6 0.8-0.5 3.2 1.2 2.8 4.8-1.2 9.6-3.1 14-5.6 2.9 3.1 8.3 4.5 12.2 5.2 2.4 0.4 3.5-3.3 1-3.7-2.2-0.4-4.5-0.9-6.6-1.6-1.3-0.4-2.5-1.1-3.7-1.6 2.5-1.7 4.8-3.5 6.9-5.5 0.8 0.5 1.6 0.9 2.5 1.3 1.6 0.7 4.1 1.6 5.6 0.5 0.9-0.6 1.2-1.9 0.3-2.7-1.2-1.1-3-1-4.5-1.4-0.5-0.1 0.6-0.4 1.6-0.9 1.6-0.8 3.1-1.7 4.6-2.6 0.8 1 1.8 1.8 2.5 3 1.2 1.9 1.5 4.1 1.6 6.3 0.2 3.8-0.9 8 0.1 11.7 0.6 2 3.5 2 4 0 0.8-2.6 0.4-5.5 0.3-8.2 0-2.6-0.1-5.4-0.8-7.9-0.7-2.4-2.7-5.6-5.3-6.4 2.7-2 5.2-4.3 7.3-7 4-5.2 5.7-11.9 6.2-18.3 1.2-13.2-2.1-26.6-13.8-34.1-11-7.1-25.8-7.3-37.4-1.7-11.8 5.8-16.2 19.8-16.4 32.1C11.5 45.6 12.9 60.1 21.5 65.1zM39.2 63.7c-0.5 0.4-1.9 1.4-3.7 2.3 0-0.6-4.2-7-5.1-9.9-0.5-1.6-1.5-7 1.6-6.7 1.8 0.2 3.9 4.9 4.8 6.4 1.3 2.2 2.1 4.7 3.8 6.7C40.1 62.9 39.7 63.3 39.2 63.7zM26 11.6C30 7.9 36.6 6 42 5.6c5.7-0.4 11.7 0.6 16.9 3 4.6 2.1 8.8 5.5 11.4 9.8 3.1 5 3.7 10.9 3.8 16.6 0.1 6.3-0.8 13.5-4.2 18.9-2 3.2-5.1 6.1-8.6 8.1 0 0 0-0.1 0-0.1 1.4-3.1 3.3-7.7 2.3-11.1-0.9-3.1-4-4.6-7.1-4.3-3.9 0.5-6.3 3.8-8.3 6.7-1.5 2.1-3.1 4.2-4.8 6.2-0.8-3.8-3.2-8.2-5.1-11-2.2-3.4-5.6-5.7-9.6-3.5-9.1 4.8-2.2 17.6 2.3 23 0 0 0 0 0.1 0.1-2.5 0.8-4.6 0.7-4.6-1.8 0-0.2 0.1-1.2-0.3-1.5-6.9-5.6-9.1-13.7-9.8-22.3C15.5 31.7 17.6 19.3 26 11.6z" fill="#6569f1" data-fill-palette-color="accent"></path><path d="M34.2 36.4c1-1.9 0.6-4 0.7-6.1 0.1-1.9 0.3-3.9-0.2-5.8-0.5-1.9-3.4-2.4-4.4-0.6-1 1.9-1.2 4-1.4 6.1-0.2 2.2-0.6 4.3 0.4 6.3C30.3 38.2 33.3 38.2 34.2 36.4z" fill="#6569f1" data-fill-palette-color="accent"></path><path d="M59.1 36.4c1-1.9 0.6-4 0.7-6.1 0.1-1.9 0.3-3.9-0.2-5.8-0.5-1.9-3.4-2.4-4.4-0.6-1 1.9-1.2 4-1.4 6.1-0.2 2.2-0.6 4.3 0.4 6.3C55.1 38.2 58.1 38.2 59.1 36.4z" fill="#6569f1" data-fill-palette-color="accent"></path></g></svg></g></svg></g><g id="text-0"><path d="M28.604 108.651l-26.629-9.37 1.847-5.249 26.725-2.749 0.087-0.248-11.682-3.949-11.288-3.972 1.188-3.377 26.629 9.37-1.804 5.126-26.958 2.806-0.091 0.256 12.227 4.131 10.937 3.849z" fill="#50d8d7" data-fill-palette-color="primary"></path><path d="M52.422 65.604v0c-1.964 2.388-4.1 3.669-6.408 3.841-2.304 0.168-4.666-0.743-7.086-2.733v0l-2.546-2.094c-2.409-1.981-3.747-4.121-4.014-6.42-0.266-2.29 0.578-4.624 2.533-7.001v0c1.964-2.388 4.095-3.673 6.393-3.855 2.303-0.177 4.66 0.725 7.068 2.706v0l2.547 2.094c2.419 1.989 3.767 4.133 4.044 6.432 0.277 2.299-0.567 4.642-2.531 7.03zM50.172 63.753v0c1.217-1.48 1.702-2.964 1.456-4.454-0.246-1.49-1.194-2.913-2.844-4.271v0l-2.843-2.337c-1.641-1.349-3.21-1.996-4.709-1.94-1.504 0.051-2.864 0.817-4.081 2.296v0c-1.204 1.464-1.688 2.941-1.451 4.432 0.231 1.486 1.167 2.904 2.807 4.253v0l2.842 2.337c1.651 1.357 3.233 2.01 4.747 1.958 1.513-0.052 2.872-0.81 4.076-2.274z" fill="#50d8d7" data-fill-palette-color="primary"></path><path d="M80.051 41.765v0c-1.403 0.901-2.667 1.413-3.794 1.537-1.123 0.13-2.151-0.109-3.083-0.716-0.937-0.613-1.813-1.555-2.631-2.828v0l-7.353-11.453 2.978-1.912 7.124 11.097c0.766 1.193 1.6 1.896 2.503 2.107 0.912 0.213 2.01-0.092 3.294-0.916v0c0.735-0.472 1.387-1.006 1.954-1.603 0.577-0.594 1.066-1.232 1.468-1.912v0l1.381 2.767c-0.394 0.668-0.925 1.34-1.592 2.017-0.668 0.676-1.418 1.282-2.249 1.815zM72.885 20.583l1.273 2.597-13.066 8.388-1.552-2.418zM62.21 20.116l3.391 5.562-2.884 1.852-3.285-5.079z" fill="#50d8d7" data-fill-palette-color="primary"></path><path d="M93.421 3.77l3.459-1.225 9.427 26.609-3.459 1.225z" fill="#50d8d7" data-fill-palette-color="primary"></path><path d="M144.309 10.249l0.829 13.777-3.573 0.215-0.805-13.385c-0.07-1.161-0.288-2.151-0.654-2.97-0.366-0.82-0.922-1.439-1.667-1.86-0.739-0.42-1.726-0.593-2.96-0.518v0c-1.134 0.068-2.1 0.342-2.9 0.82-0.807 0.473-1.446 1.09-1.919 1.853-0.473 0.756-0.782 1.602-0.927 2.54v0l-0.797-2.497 0.775-0.046c0.177-0.98 0.536-1.891 1.078-2.732 0.536-0.834 1.286-1.518 2.25-2.054 0.964-0.543 2.167-0.858 3.609-0.944v0c1.704-0.102 3.102 0.14 4.195 0.727 1.085 0.581 1.909 1.464 2.473 2.649 0.556 1.185 0.887 2.66 0.993 4.425zM129.764 8.73l0.972 16.162-3.572 0.215-1.294-21.516 3.572-0.215 0.159 5.162z" fill="#50d8d7" data-fill-palette-color="primary"></path><path d="M172.95 0l3.529 1.006-7.737 27.148-3.529-1.006zM189.345 4.672l3.53 1.006-7.737 27.149-3.529-1.006zM186.579 19.714l-15.785-4.498 0.848-2.977 15.785 4.498z" fill="#50d8d7" data-fill-palette-color="primary"></path><path d="M210.099 48.536v0c-2.66-1.919-4.197-4.017-4.609-6.294-0.411-2.269 0.258-4.616 2.008-7.042v0l2.247-3.116c1.777-2.464 3.772-3.909 5.985-4.335 2.213-0.426 4.524 0.23 6.934 1.968v0c1.625 1.172 2.766 2.45 3.424 3.836 0.648 1.387 0.847 2.836 0.595 4.345-0.247 1.504-0.927 3.027-2.04 4.57v0l-0.466 0.646c-0.275 0.382-0.567 0.751-0.874 1.109-0.302 0.362-0.612 0.711-0.929 1.046v0l-2.665-1.922c0.435-0.557 0.839-1.089 1.214-1.598 0.375-0.509 0.718-0.978 1.028-1.409v0c0.767-1.063 1.246-2.084 1.439-3.064 0.187-0.984 0.083-1.913-0.314-2.787-0.391-0.871-1.097-1.674-2.116-2.409v0c-1.505-1.085-2.948-1.463-4.329-1.133-1.381 0.33-2.658 1.307-3.83 2.931v0l-1.197 1.66-0.243 0.372-1.203 1.668c-0.527 0.731-0.892 1.466-1.094 2.207-0.208 0.737-0.234 1.485-0.077 2.244 0.151 0.755 0.501 1.5 1.048 2.235 0.557 0.733 1.323 1.451 2.299 2.155v0c1.139 0.822 2.305 1.434 3.498 1.838 1.198 0.408 2.412 0.666 3.642 0.775v0l-2.08 2.316c-1.133-0.072-2.319-0.33-3.556-0.774-1.233-0.45-2.48-1.129-3.739-2.038zM223.336 42.644l-1.575 2.183-12.43-8.964 1.575-2.183z" fill="#50d8d7" data-fill-palette-color="primary"></path><path d="M242.961 62.022v0l1.704-2.323 0.563 0.674c1.74-0.733 3.377-0.962 4.913-0.687 1.53 0.279 2.872 1.176 4.024 2.689v0c0.285 0.374 0.512 0.734 0.681 1.078 0.169 0.344 0.301 0.662 0.396 0.953v0l-2.625 2.277c-0.124-0.362-0.295-0.743-0.514-1.141-0.214-0.403-0.486-0.821-0.816-1.255v0c-0.981-1.289-2.192-2.141-3.632-2.557-1.441-0.406-3.006-0.309-4.694 0.292zM244.453 61.102l-11.88 9.045-2.168-2.848 17.15-13.057 2.113 2.776-5.165 3.717z" fill="#50d8d7" data-fill-palette-color="primary"></path><path d="M249.316 102.632v0c-1.152-3.071-1.27-5.669-0.352-7.794 0.914-2.116 2.772-3.7 5.572-4.751v0l3.597-1.349c2.844-1.067 5.306-1.166 7.384-0.295 2.079 0.871 3.64 2.697 4.684 5.479v0c0.704 1.875 0.946 3.572 0.725 5.09-0.229 1.514-0.865 2.83-1.91 3.948-1.039 1.115-2.449 2.007-4.23 2.675v0l-0.745 0.28c-0.44 0.165-0.888 0.312-1.343 0.439-0.452 0.134-0.903 0.253-1.352 0.357v0l-1.155-3.077c0.67-0.223 1.302-0.442 1.896-0.658 0.594-0.216 1.139-0.417 1.636-0.604v0c1.227-0.461 2.192-1.045 2.896-1.754 0.701-0.715 1.128-1.547 1.282-2.495 0.156-0.942 0.014-2.001-0.428-3.177v0c-0.652-1.737-1.644-2.85-2.977-3.341-1.333-0.491-2.937-0.384-4.812 0.32v0l-1.916 0.719-0.408 0.174-1.926 0.723c-0.843 0.316-1.554 0.727-2.133 1.231-0.581 0.498-1.017 1.107-1.307 1.826-0.292 0.713-0.414 1.527-0.365 2.442 0.058 0.919 0.298 1.941 0.72 3.067v0c0.494 1.315 1.125 2.471 1.894 3.468 0.771 1.003 1.639 1.89 2.604 2.663v0l-3.015 0.776c-0.904-0.687-1.748-1.559-2.532-2.615-0.777-1.058-1.439-2.314-1.984-3.767zM263.6 105.057l-2.52 0.946-5.384-14.348 2.52-0.945z" fill="#50d8d7" data-fill-palette-color="primary"></path><path d="M8.268 181.011l26.629-9.37 1.847 5.25-19.116 18.878 0.088 0.247 11.581-4.235 11.288-3.972 1.188 3.376-26.629 9.37-1.803-5.126 19.262-19.069-0.091-0.256-12.119 4.435-10.937 3.848z" fill="#50d8d7" data-fill-palette-color="primary"></path><path d="M34.914 231.299v0c-1.964-2.388-2.807-4.732-2.531-7.03 0.281-2.293 1.631-4.435 4.051-6.424v0l2.546-2.094c2.409-1.981 4.767-2.88 7.075-2.697 2.298 0.181 4.425 1.461 6.38 3.838v0c1.964 2.388 2.812 4.727 2.546 7.017-0.272 2.294-1.612 4.432-4.02 6.413v0l-2.547 2.094c-2.419 1.989-4.783 2.898-7.092 2.724-2.309-0.173-4.445-1.453-6.408-3.841zM37.164 229.449v0c1.217 1.48 2.579 2.243 4.089 2.289 1.509 0.047 3.089-0.608 4.74-1.965v0l2.842-2.337c1.641-1.349 2.578-2.764 2.814-4.246 0.24-1.486-0.248-2.968-1.464-4.447v0c-1.204-1.464-2.56-2.224-4.068-2.281-1.503-0.061-3.075 0.583-4.716 1.932v0l-2.842 2.337c-1.651 1.357-2.597 2.784-2.839 4.279-0.241 1.495 0.24 2.974 1.444 4.439z" fill="#50d8d7" data-fill-palette-color="primary"></path><path d="M67.924 259.629v0c-1.403-0.901-2.395-1.837-2.976-2.809-0.585-0.967-0.796-2.001-0.633-3.102 0.167-1.107 0.659-2.296 1.477-3.569v0l7.353-11.453 2.978 1.912-7.125 11.097c-0.766 1.193-1.058 2.244-0.874 3.153 0.186 0.918 0.92 1.789 2.205 2.613v0c0.735 0.472 1.492 0.842 2.27 1.11 0.78 0.277 1.564 0.457 2.35 0.538v0l-1.941 2.408c-0.771-0.08-1.604-0.283-2.497-0.608-0.893-0.326-1.755-0.756-2.587-1.29zM84.202 244.297l-1.833 2.238-13.065-8.388 1.552-2.418zM80.183 234.396l-3.646 5.399-2.885-1.852 3.251-5.101z" fill="#50d8d7" data-fill-palette-color="primary"></path><path d="M105.076 245.839l3.459 1.226-9.427 26.609-3.459-1.226z" fill="#50d8d7" data-fill-palette-color="primary"></path><path d="M144.672 266.223l-0.829 13.777-3.572-0.215 0.805-13.385c0.07-1.161-0.028-2.17-0.293-3.027-0.265-0.858-0.742-1.539-1.432-2.046-0.683-0.506-1.642-0.796-2.877-0.87v0c-1.134-0.068-2.126 0.088-2.977 0.468-0.857 0.373-1.566 0.909-2.127 1.609-0.56 0.694-0.969 1.497-1.226 2.411v0l-0.492-2.575 0.775 0.047c0.293-0.952 0.759-1.813 1.398-2.583 0.632-0.763 1.458-1.353 2.48-1.769 1.022-0.423 2.254-0.592 3.697-0.505v0c1.704 0.102 3.063 0.511 4.077 1.225 1.008 0.707 1.72 1.682 2.137 2.926 0.41 1.243 0.562 2.747 0.456 4.512zM130.414 262.971l-0.972 16.163-3.573-0.215 1.295-21.516 3.572 0.215-0.461 5.143z" fill="#50d8d7" data-fill-palette-color="primary"></path><path d="M163.385 248.942l3.529-1.005 7.737 27.148-3.53 1.006zM179.781 244.27l3.529-1.006 7.736 27.149-3.529 1.006zM185.359 258.51l-15.785 4.498-0.848-2.976 15.784-4.498z" fill="#50d8d7" data-fill-palette-color="primary"></path><path d="M223.275 252.241v0c-2.66 1.919-5.136 2.714-7.428 2.386-2.282-0.326-4.298-1.703-6.047-4.129v0l-2.247-3.115c-1.777-2.464-2.518-4.813-2.224-7.048 0.295-2.234 1.647-4.22 4.057-5.958v0c1.625-1.172 3.198-1.851 4.721-2.037 1.521-0.177 2.958 0.092 4.311 0.806 1.349 0.71 2.579 1.836 3.691 3.379v0l0.466 0.646c0.275 0.382 0.534 0.775 0.777 1.18 0.248 0.401 0.481 0.805 0.699 1.211v0l-2.666 1.923c-0.391-0.588-0.769-1.14-1.132-1.657-0.364-0.516-0.701-0.99-1.012-1.421v0c-0.767-1.063-1.584-1.841-2.453-2.333-0.874-0.488-1.789-0.682-2.744-0.581-0.95 0.097-1.934 0.512-2.954 1.247v0c-1.505 1.085-2.319 2.335-2.442 3.75-0.123 1.415 0.401 2.934 1.572 4.559v0l1.198 1.66 0.275 0.348 1.203 1.668c0.527 0.731 1.11 1.309 1.749 1.735 0.633 0.43 1.335 0.691 2.105 0.782 0.765 0.095 1.582-0.001 2.451-0.289 0.871-0.297 1.795-0.797 2.771-1.501v0c1.139-0.822 2.089-1.734 2.849-2.738 0.765-1.007 1.393-2.078 1.885-3.212v0l1.541 2.705c-0.426 1.053-1.045 2.096-1.858 3.13-0.817 1.028-1.854 1.996-3.114 2.904zM221.863 237.821l1.575 2.184-12.43 8.963-1.574-2.183z" fill="#50d8d7" data-fill-palette-color="primary"></path><path d="M239.13 217.567v0l-2.693-1.024 0.499-0.722c-1.17-1.482-1.826-2.999-1.969-4.553-0.138-1.55 0.369-3.081 1.521-4.595v0c0.285-0.374 0.571-0.689 0.857-0.943 0.287-0.255 0.558-0.466 0.814-0.636v0l2.894 1.925c-0.316 0.215-0.637 0.482-0.964 0.799-0.332 0.314-0.662 0.687-0.992 1.12v0c-0.981 1.289-1.481 2.683-1.498 4.182-0.008 1.497 0.502 2.98 1.531 4.447zM237.846 216.374l11.88 9.045-2.168 2.847-17.151-13.056 2.113-2.776 4.958 3.99z" fill="#50d8d7" data-fill-palette-color="primary"></path><path d="M270.406 187.789v0c-1.152 3.071-2.773 5.104-4.863 6.101-2.081 0.992-4.522 0.963-7.322-0.088v0l-3.596-1.35c-2.844-1.067-4.763-2.613-5.755-4.636-0.992-2.024-0.967-4.426 0.077-7.208v0c0.704-1.875 1.638-3.312 2.802-4.311 1.168-0.99 2.514-1.562 4.036-1.716 1.516-0.156 3.164 0.1 4.946 0.768v0l0.745 0.28c0.44 0.165 0.874 0.349 1.3 0.553 0.429 0.197 0.846 0.404 1.253 0.621v0l-1.154 3.077c-0.651-0.273-1.272-0.524-1.861-0.752-0.589-0.228-1.132-0.436-1.629-0.622v0c-1.227-0.461-2.339-0.655-3.335-0.584-0.998 0.078-1.867 0.423-2.607 1.035-0.737 0.606-1.327 1.498-1.768 2.675v0c-0.652 1.737-0.637 3.228 0.044 4.474 0.681 1.246 1.959 2.221 3.834 2.925v0l1.916 0.719 0.422 0.137 1.926 0.723c0.843 0.316 1.649 0.475 2.417 0.476 0.765 0.007 1.494-0.164 2.185-0.515 0.689-0.344 1.316-0.877 1.881-1.598 0.561-0.73 1.053-1.658 1.476-2.785v0c0.494-1.315 0.779-2.601 0.855-3.857 0.079-1.263 0.009-2.502-0.209-3.718v0l2.781 1.399c0.229 1.112 0.291 2.324 0.187 3.634-0.11 1.308-0.438 2.689-0.984 4.143zM261.244 176.565l2.52 0.946-5.385 14.347-2.52-0.946z" fill="#50d8d7" data-fill-palette-color="primary"></path><path d="M2.389 141.253c0-5.956 4.828-10.784 10.784-10.783 5.956 0 10.784 4.828 10.783 10.783 0 5.956-4.828 10.784-10.784 10.784-5.956 0-10.784-4.828-10.783-10.784z" fill="#50d8d7" data-fill-palette-color="primary"></path><path d="M256.458 141.253c0-5.956 4.828-10.784 10.783-10.783 5.956 0 10.784 4.828 10.784 10.783 0 5.956-4.828 10.784-10.784 10.784-5.956 0-10.784-4.828-10.783-10.784z" fill="#50d8d7" data-fill-palette-color="primary"></path></g><g id="text-1"></g></svg></g></svg></g></svg></g></svg></g><defs></defs></svg><rect width="280" height="280" fill="none" stroke="none" visibility="hidden"></rect></g></svg></g></svg>