<svg  xmlns="http://www.w3.org/2000/svg" version="1.1" xmlns:xlink="http://www.w3.org/1999/xlink" xmlns:svgjs="http://svgjs.dev/svgjs" width="2000" height="292" viewBox="0 0 2000 292"><g transform="matrix(1,0,0,1,-1.2121212121212466,-0.7042201507692027)"><svg viewBox="0 0 396 58" data-background-color="#ffffff" preserveAspectRatio="xMidYMid meet" height="292" width="2000" xmlns="http://www.w3.org/2000/svg" xmlns:xlink="http://www.w3.org/1999/xlink"><g id="tight-bounds" transform="matrix(1,0,0,1,0.2400000000000091,0.13987934501579957)"><svg viewBox="0 0 395.52 57.72024130996839" height="57.72024130996839" width="395.52"><g><svg viewBox="0 0 395.52 57.72024130996839" height="57.72024130996839" width="395.52"><g><svg viewBox="0 0 395.52 57.72024130996839" height="57.72024130996839" width="395.52"><g id="textblocktransform"><svg viewBox="0 0 395.52 57.72024130996839" height="57.72024130996839" width="395.52" id="textblock"><g><svg viewBox="0 0 395.52 57.72024130996839" height="57.72024130996839" width="395.52"><g transform="matrix(1,0,0,1,0,0)"><svg width="395.52" viewBox="2 -37.5 263.03 38.1" height="57.72024130996839" data-palette-color="url(#24eb84d1-2ad2-440e-a637-04d91977f459)"><g class="wordmark-text-0" data-fill-palette-color="primary" id="text-0"></g></svg></g></svg></g></svg></g></svg></g></svg></g><defs></defs><mask id="a84a7517-befa-4235-8409-50cb3f01f3c7"><g id="SvgjsG1573"><svg viewBox="0 0 395.52 57.72024130996839" height="57.72024130996839" width="395.52"><g><svg viewBox="0 0 395.52 57.72024130996839" height="57.72024130996839" width="395.52"><g><svg viewBox="0 0 395.52 57.72024130996839" height="57.72024130996839" width="395.52"><g id="SvgjsG1572"><svg viewBox="0 0 395.52 57.72024130996839" height="57.72024130996839" width="395.52" id="SvgjsSvg1571"><g><svg viewBox="0 0 395.52 57.72024130996839" height="57.72024130996839" width="395.52"><g transform="matrix(1,0,0,1,0,0)"><svg width="395.52" viewBox="2 -37.5 263.03 38.1" height="57.72024130996839" data-palette-color="url(#24eb84d1-2ad2-440e-a637-04d91977f459)"><g class="wordmark-text-0" data-fill-palette-color="primary" id="SvgjsG1570"><path d="M2.85-34.75L5.85-34.75Q6.73-34.75 6.99-34.58 7.25-34.4 7.25-33.52L7.25-33.52 7.25-4.03Q7.25-3.18 7-2.96 6.75-2.75 5.88-2.75L5.88-2.75 3.15-2.75Q2.58-2.75 2.29-2.61 2-2.48 2-1.83L2-1.83 2-0.93Q2-0.3 2.2-0.15 2.4 0 3.05 0L3.05 0 15.2 0Q15.83 0 16.04-0.16 16.25-0.33 16.25-0.98L16.25-0.98 16.25-1.73Q16.25-2.27 16.11-2.51 15.98-2.75 15.4-2.75L15.4-2.75 11.6-2.75Q10.88-2.75 10.69-2.94 10.5-3.13 10.5-3.83L10.5-3.83 10.5-29.18Q10.5-31.03 10.88-31.19 11.25-31.35 11.8-30.63L11.8-30.63 35.27-0.13Q35.52 0.2 35.8 0.35 36.08 0.5 36.65 0.5L36.65 0.5 36.8 0.5Q37.3 0.5 37.4 0.16 37.5-0.18 37.5-0.63L37.5-0.63 37.5-33.48Q37.5-34.3 37.71-34.52 37.93-34.75 38.7-34.75L38.7-34.75 41.85-34.75Q42.5-34.75 42.63-34.99 42.75-35.23 42.75-35.85L42.75-35.85 42.75-36.77Q42.75-37.33 42.36-37.41 41.98-37.5 41.5-37.5L41.5-37.5 29.95-37.5Q29.18-37.5 28.96-37.16 28.75-36.83 28.75-36.08L28.75-36.08 28.75-35.52Q28.75-34.9 29.35-34.83 29.95-34.75 30.5-34.75L30.5-34.75 32.95-34.75Q33.75-34.75 34-34.58 34.25-34.4 34.25-33.58L34.25-33.58 34.25-11.43Q34.25-9.93 33.9-9.74 33.55-9.55 33.05-10.2L33.05-10.2 13.3-36.13Q12.73-36.9 12.34-37.2 11.95-37.5 10.5-37.5L10.5-37.5 2.9-37.5Q2.25-37.5 2.13-37.26 2-37.02 2-36.38L2-36.38 2-35.63Q2-35.13 2.15-34.94 2.3-34.75 2.85-34.75L2.85-34.75ZM51.25-13.5L51.25-13.5Q51.25-15.45 51.54-17.36 51.82-19.28 52.55-20.83 53.27-22.38 54.59-23.31 55.9-24.25 57.95-24.25L57.95-24.25Q60.67-24.25 62.12-22.6 63.57-20.95 64.11-18.28 64.65-15.6 64.65-12.5L64.65-12.5Q64.65-10.55 64.36-8.64 64.07-6.73 63.35-5.18 62.62-3.63 61.31-2.69 60-1.75 57.95-1.75L57.95-1.75Q55.22-1.75 53.77-3.4 52.32-5.05 51.79-7.73 51.25-10.4 51.25-13.5ZM46-12.5L46-12.5Q46-9 47.31-6.04 48.62-3.08 51.27-1.29 53.92 0.5 57.95 0.5L57.95 0.5Q61.97 0.5 64.62-1.34 67.27-3.18 68.59-6.34 69.9-9.5 69.9-13.5L69.9-13.5Q69.9-17 68.59-19.96 67.27-22.93 64.62-24.71 61.97-26.5 57.95-26.5L57.95-26.5Q53.92-26.5 51.27-24.66 48.62-22.83 47.31-19.66 46-16.5 46-12.5ZM89.37-4.88L89.37-4.88Q89.5-5.2 89.38-5.33 89.27-5.45 88.97-5.55L88.97-5.55 88.17-5.83Q87.77-5.98 87.63-5.9 87.5-5.83 87.32-5.45L87.32-5.45Q86.67-4.03 85.81-3.26 84.95-2.5 83.87-2.5L83.87-2.5Q82.87-2.5 82.27-3.18 81.67-3.85 81.67-5.35L81.67-5.35 81.67-22.43Q81.67-23 81.92-23.13 82.17-23.25 82.7-23.25L82.7-23.25 88.2-23.25Q88.65-23.25 88.83-23.34 89.02-23.43 89.02-23.88L89.02-23.88 89.02-25.18Q89.02-25.7 88.86-25.85 88.7-26 88.2-26L88.2-26 82.65-26Q82.17-26 81.92-26.13 81.67-26.25 81.67-26.78L81.67-26.78 81.67-32.27Q81.67-33 81.02-33L81.02-33 79.67-33Q79.12-33 79-32.85 78.87-32.7 78.77-32.27L78.77-32.27Q78.27-30.1 77.85-28.83 77.42-27.55 76.87-26.95 76.32-26.35 75.47-26.18 74.62-26 73.27-26L73.27-26Q72.8-26 72.66-25.91 72.52-25.83 72.52-25.35L72.52-25.35 72.52-24Q72.52-23.5 72.7-23.38 72.87-23.25 73.4-23.25L73.4-23.25 76.37-23.25Q76.82-23.25 77-23.05 77.17-22.85 77.17-22.4L77.17-22.4 77.17-4.3Q77.17-2.25 78.35-0.83 79.52 0.6 82.22 0.6L82.22 0.6Q84.17 0.6 85.58-0.14 87-0.88 87.93-2.13 88.87-3.38 89.37-4.88ZM102.39-3.85L102.39-33.85Q102.39-34.48 102.57-34.61 102.74-34.75 103.34-34.75L103.34-34.75 107.34-34.75Q107.82-34.75 108.11-34.95 108.39-35.15 108.39-35.8L108.39-35.8 108.39-36.65Q108.39-37.23 108.23-37.36 108.07-37.5 107.49-37.5L107.49-37.5 92.89-37.5Q92.47-37.5 92.31-37.43 92.14-37.35 92.14-36.85L92.14-36.85 92.14-35.5Q92.14-35.1 92.33-34.93 92.52-34.75 92.99-34.75L92.99-34.75 96.89-34.75Q97.47-34.75 97.56-34.58 97.64-34.4 97.64-33.9L97.64-33.9 97.64-4Q97.64-3.15 97.12-2.95 96.59-2.75 95.94-2.75L95.94-2.75 93.29-2.75Q92.59-2.75 92.37-2.6 92.14-2.45 92.14-2.05L92.14-2.05 92.14-0.8Q92.14-0.33 92.38-0.16 92.62 0 93.14 0L93.14 0 107.39 0Q107.92 0 108.16-0.18 108.39-0.35 108.39-0.8L108.39-0.8 108.39-1.95Q108.39-2.3 108.29-2.53 108.19-2.75 107.84-2.75L107.84-2.75 103.34-2.75Q102.79-2.75 102.59-2.99 102.39-3.23 102.39-3.85L102.39-3.85ZM113.17-23.25L116.54-23.25Q116.84-23.25 116.99-23.18 117.14-23.1 117.14-22.83L117.14-22.83 117.14-3.45Q117.14-2.98 116.97-2.86 116.79-2.75 116.29-2.75L116.29-2.75 113.54-2.75Q113.07-2.75 112.85-2.61 112.64-2.48 112.64-1.95L112.64-1.95 112.64-0.8Q112.64-0.33 112.77-0.16 112.89 0 113.34 0L113.34 0 125.44 0Q125.87 0 126-0.15 126.14-0.3 126.14-0.75L126.14-0.75 126.14-1.9Q126.14-2.45 125.95-2.6 125.77-2.75 125.27-2.75L125.27-2.75 122.69-2.75Q122.12-2.75 121.88-2.98 121.64-3.2 121.64-3.78L121.64-3.78 121.64-14.15Q121.64-16.73 122.62-18.89 123.59-21.05 125.39-22.35 127.19-23.65 129.64-23.65L129.64-23.65Q132.12-23.65 133.25-22.16 134.39-20.68 134.39-17.9L134.39-17.9 134.39-3.73Q134.39-3.08 134.19-2.91 133.99-2.75 133.39-2.75L133.39-2.75 130.52-2.75Q130.12-2.75 130-2.6 129.89-2.45 129.89-2.02L129.89-2.02 129.89-0.78Q129.89-0.38 129.97-0.19 130.04 0 130.44 0L130.44 0 142.62 0Q143.04 0 143.22-0.08 143.39-0.15 143.39-0.55L143.39-0.55 143.39-2Q143.39-2.43 143.28-2.59 143.17-2.75 142.74-2.75L142.74-2.75 139.79-2.75Q139.14-2.75 139.02-2.99 138.89-3.23 138.89-3.88L138.89-3.88 138.89-18.45Q138.89-21.13 138.19-22.91 137.49-24.7 135.73-25.6 133.97-26.5 130.79-26.5L130.79-26.5Q127.54-26.5 125.44-25.14 123.34-23.78 122.14-21.78L122.14-21.78Q121.89-21.38 121.77-21.3 121.64-21.23 121.64-22.2L121.64-22.2 121.64-25.13Q121.64-25.48 121.47-25.74 121.29-26 120.87-26L120.87-26 113.12-26Q112.84-26 112.74-25.86 112.64-25.73 112.64-25.43L112.64-25.43 112.64-23.88Q112.64-23.55 112.74-23.4 112.84-23.25 113.17-23.25L113.17-23.25ZM156.39-22.2L156.39-33.68Q156.39-34.35 156.56-34.55 156.74-34.75 157.36-34.75L157.36-34.75 161.46-34.75Q162.04-34.75 162.21-34.93 162.39-35.1 162.39-35.7L162.39-35.7 162.39-36.7Q162.39-37.25 162.14-37.38 161.89-37.5 161.39-37.5L161.39-37.5 147.14-37.5Q146.59-37.5 146.36-37.33 146.14-37.15 146.14-36.55L146.14-36.55 146.14-35.9Q146.14-35.25 146.26-35 146.39-34.75 147.01-34.75L147.01-34.75 150.66-34.75Q151.24-34.75 151.44-34.56 151.64-34.38 151.64-33.77L151.64-33.77 151.64-3.6Q151.64-3 151.43-2.88 151.21-2.75 150.61-2.75L150.61-2.75 147.16-2.75Q146.51-2.75 146.33-2.56 146.14-2.38 146.14-1.7L146.14-1.7 146.14-1Q146.14-0.35 146.33-0.18 146.51 0 147.14 0L147.14 0 161.14 0Q161.96 0 162.18-0.2 162.39-0.4 162.39-1.25L162.39-1.25 162.39-1.9Q162.39-2.45 162.23-2.6 162.06-2.75 161.56-2.75L161.56-2.75 157.34-2.75Q156.71-2.75 156.55-2.96 156.39-3.18 156.39-3.75L156.39-3.75 156.39-16.95Q156.39-17.68 156.6-17.84 156.81-18 157.56-18L157.56-18 175.16-18Q175.91-18 176.15-17.8 176.39-17.6 176.39-16.8L176.39-16.8 176.39-4Q176.39-3.3 176.23-3.03 176.06-2.75 175.34-2.75L175.34-2.75 171.11-2.75Q170.61-2.75 170.5-2.56 170.39-2.38 170.39-1.85L170.39-1.85 170.39-1.1Q170.39-0.4 170.55-0.2 170.71 0 171.39 0L171.39 0 185.39 0Q186.11 0 186.38-0.16 186.64-0.33 186.64-1.1L186.64-1.1 186.64-1.95Q186.64-2.5 186.4-2.63 186.16-2.75 185.66-2.75L185.66-2.75 182.06-2.75Q181.51-2.75 181.33-2.91 181.14-3.08 181.14-3.6L181.14-3.6 181.14-33.6Q181.14-34.43 181.41-34.59 181.69-34.75 182.51-34.75L182.51-34.75 185.66-34.75Q186.24-34.75 186.44-34.91 186.64-35.08 186.64-35.6L186.64-35.6 186.64-36.55Q186.64-37.2 186.44-37.35 186.24-37.5 185.64-37.5L185.64-37.5 171.39-37.5Q170.74-37.5 170.56-37.31 170.39-37.13 170.39-36.45L170.39-36.45 170.39-35.73Q170.39-35.25 170.55-35 170.71-34.75 171.24-34.75L171.24-34.75 175.31-34.75Q176.11-34.75 176.25-34.5 176.39-34.25 176.39-33.45L176.39-33.45 176.39-22.35Q176.39-21.35 176.21-21.05 176.04-20.75 175.06-20.75L175.06-20.75 157.81-20.75Q156.81-20.75 156.6-21 156.39-21.25 156.39-22.2L156.39-22.2ZM190.76-12.5L190.76-12.5Q190.76-9 192.1-6.04 193.44-3.08 196.04-1.29 198.64 0.5 202.41 0.5L202.41 0.5Q205.59 0.5 207.81-0.6 210.04-1.7 211.44-3.64 212.84-5.58 213.54-8.13L213.54-8.13Q213.61-8.4 213.51-8.53 213.41-8.65 213.04-8.65L213.04-8.65 211.59-8.65Q211.21-8.65 211.11-8.49 211.01-8.33 210.91-8.05L210.91-8.05Q209.91-5.3 207.95-3.63 205.99-1.95 203.01-1.95L203.01-1.95Q200.44-1.95 198.85-3.39 197.26-4.83 196.54-7.2 195.81-9.58 195.81-12.33L195.81-12.33Q195.81-12.75 196.02-12.9 196.24-13.05 196.64-13.05L196.64-13.05 212.71-13.05Q213.24-13.05 213.42-13.16 213.61-13.28 213.61-13.78L213.61-13.78Q213.61-15.55 213.26-17.36 212.91-19.18 212.14-20.81 211.36-22.45 210.1-23.74 208.84-25.03 207.02-25.76 205.21-26.5 202.76-26.5L202.76-26.5Q198.74-26.5 196.07-24.66 193.41-22.83 192.09-19.66 190.76-16.5 190.76-12.5ZM207.91-15.2L196.61-15.2Q196.16-15.2 196.04-15.33 195.91-15.45 195.91-15.83L195.91-15.83Q195.91-17.8 196.66-19.75 197.41-21.7 198.94-23 200.46-24.3 202.76-24.3L202.76-24.3Q204.29-24.3 205.39-23.43 206.49-22.55 207.21-21.19 207.94-19.83 208.29-18.34 208.64-16.85 208.64-15.6L208.64-15.6Q208.64-15.35 208.52-15.28 208.41-15.2 207.91-15.2L207.91-15.2ZM222.41-22.3L222.41-22.3 222.41-3.63Q222.41-3.08 222.18-2.91 221.96-2.75 221.38-2.75L221.38-2.75 218.61-2.75Q218.23-2.75 218.07-2.61 217.91-2.48 217.91-2.05L217.91-2.05 217.91-0.48Q217.91-0.15 218.1-0.08 218.28 0 218.61 0L218.61 0 230.76 0Q231.18 0 231.3-0.16 231.41-0.33 231.41-0.78L231.41-0.78 231.41-1.9Q231.41-2.38 231.32-2.56 231.23-2.75 230.76-2.75L230.76-2.75 227.71-2.75Q227.13-2.75 227.02-2.98 226.91-3.2 226.91-3.78L226.91-3.78 226.91-14.15Q226.91-16.73 227.67-18.99 228.43-21.25 229.77-22.65 231.11-24.05 232.81-24.05L232.81-24.05Q233.71-24.05 234.01-23.86 234.31-23.68 234.31-23.3L234.31-23.3Q234.31-23 234.02-22.71 233.73-22.43 233.45-21.94 233.16-21.45 233.16-20.55L233.16-20.55Q233.16-19.4 234.05-18.7 234.93-18 236.21-18L236.21-18Q237.08-18 237.78-18.51 238.48-19.03 238.9-19.89 239.31-20.75 239.31-21.8L239.31-21.8Q239.31-23.98 237.66-25.24 236.01-26.5 233.91-26.5L233.91-26.5Q231.46-26.5 229.9-25.39 228.33-24.28 227.43-22.58L227.43-22.58Q227.11-21.95 227.01-22 226.91-22.05 226.91-22.68L226.91-22.68 226.91-25.3Q226.91-25.78 226.67-25.89 226.43-26 226.01-26L226.01-26 218.71-26Q218.18-26 218.05-25.83 217.91-25.65 217.91-25.13L217.91-25.13 217.91-24.2Q217.91-23.65 218.01-23.45 218.11-23.25 218.66-23.25L218.66-23.25 221.51-23.25Q222.08-23.25 222.25-23.08 222.41-22.9 222.41-22.3ZM242.18-12.5L242.18-12.5Q242.18-9 243.52-6.04 244.86-3.08 247.46-1.29 250.06 0.5 253.83 0.5L253.83 0.5Q257.01 0.5 259.23-0.6 261.46-1.7 262.86-3.64 264.26-5.58 264.96-8.13L264.96-8.13Q265.03-8.4 264.93-8.53 264.83-8.65 264.46-8.65L264.46-8.65 263.01-8.65Q262.63-8.65 262.53-8.49 262.43-8.33 262.33-8.05L262.33-8.05Q261.33-5.3 259.37-3.63 257.41-1.95 254.43-1.95L254.43-1.95Q251.86-1.95 250.27-3.39 248.68-4.83 247.96-7.2 247.23-9.58 247.23-12.33L247.23-12.33Q247.23-12.75 247.44-12.9 247.66-13.05 248.06-13.05L248.06-13.05 264.13-13.05Q264.66-13.05 264.84-13.16 265.03-13.28 265.03-13.78L265.03-13.78Q265.03-15.55 264.68-17.36 264.33-19.18 263.56-20.81 262.78-22.45 261.52-23.74 260.26-25.03 258.44-25.76 256.63-26.5 254.18-26.5L254.18-26.5Q250.16-26.5 247.49-24.66 244.83-22.83 243.51-19.66 242.18-16.5 242.18-12.5ZM259.33-15.2L248.03-15.2Q247.58-15.2 247.46-15.33 247.33-15.45 247.33-15.83L247.33-15.83Q247.33-17.8 248.08-19.75 248.83-21.7 250.36-23 251.88-24.3 254.18-24.3L254.18-24.3Q255.71-24.3 256.81-23.43 257.91-22.55 258.63-21.19 259.36-19.83 259.71-18.34 260.06-16.85 260.06-15.6L260.06-15.6Q260.06-15.35 259.94-15.28 259.83-15.2 259.33-15.2L259.33-15.2Z" fill="white"></path></g></svg></g></svg></g></svg></g></svg></g></svg></g><defs><mask></mask></defs></svg><rect width="395.52" height="57.72024130996839" fill="black" stroke="none" visibility="hidden"></rect></g></mask><linearGradient x1="0" x2="1" y1="0.578" y2="0.595" id="24eb84d1-2ad2-440e-a637-04d91977f459"><stop stop-color="#6ee2f5" offset="0"></stop><stop stop-color="#6454f0" offset="1"></stop></linearGradient><rect width="395.52" height="57.72024130996839" fill="url(#24eb84d1-2ad2-440e-a637-04d91977f459)" mask="url(#a84a7517-befa-4235-8409-50cb3f01f3c7)" data-fill-palette-color="primary"></rect></svg><rect width="395.52" height="57.72024130996839" fill="none" stroke="none" visibility="hidden"></rect></g></svg></g></svg>